<?xml version="1.0" encoding="UTF-8"?>
<svg xmlns="http://www.w3.org/2000/svg" xmlns:xlink="http://www.w3.org/1999/xlink" width="24px" height="24px" viewBox="0 0 24 24" version="1.1">
<g id="surface1">
<path style=" stroke:none;fill-rule:nonzero;fill:rgb(100%,100%,100%);fill-opacity:0.74902;" d="M 15.710938 12.710938 C 16.691406 11.9375 17.40625 10.882812 17.757812 9.683594 C 18.109375 8.488281 18.078125 7.210938 17.667969 6.03125 C 17.261719 4.851562 16.496094 3.832031 15.480469 3.105469 C 14.464844 2.382812 13.246094 1.996094 12 1.996094 C 10.753906 1.996094 9.535156 2.382812 8.519531 3.105469 C 7.503906 3.832031 6.738281 4.851562 6.332031 6.03125 C 5.921875 7.210938 5.890625 8.488281 6.242188 9.683594 C 6.59375 10.882812 7.308594 11.9375 8.289062 12.710938 C 6.609375 13.382812 5.144531 14.5 4.050781 15.941406 C 2.953125 17.378906 2.269531 19.089844 2.070312 20.890625 C 2.054688 21.019531 2.066406 21.152344 2.105469 21.28125 C 2.140625 21.40625 2.203125 21.527344 2.285156 21.628906 C 2.453125 21.835938 2.695312 21.972656 2.960938 22 C 3.226562 22.027344 3.492188 21.953125 3.699219 21.785156 C 3.90625 21.617188 4.039062 21.375 4.070312 21.109375 C 4.289062 19.15625 5.222656 17.351562 6.6875 16.039062 C 8.15625 14.726562 10.054688 14.003906 12.019531 14.003906 C 13.988281 14.003906 15.886719 14.726562 17.351562 16.039062 C 18.816406 17.351562 19.75 19.15625 19.96875 21.109375 C 19.996094 21.355469 20.113281 21.582031 20.300781 21.746094 C 20.484375 21.910156 20.722656 22 20.96875 22 L 21.078125 22 C 21.34375 21.96875 21.582031 21.835938 21.746094 21.632812 C 21.910156 21.425781 21.988281 21.164062 21.960938 20.898438 C 21.757812 19.097656 21.070312 17.382812 19.972656 15.9375 C 18.871094 14.496094 17.398438 13.378906 15.710938 12.710938 Z M 12 12 C 11.207031 12 10.433594 11.765625 9.777344 11.324219 C 9.121094 10.886719 8.605469 10.261719 8.304688 9.53125 C 8 8.800781 7.921875 7.996094 8.078125 7.21875 C 8.230469 6.445312 8.613281 5.730469 9.171875 5.171875 C 9.730469 4.613281 10.445312 4.230469 11.21875 4.078125 C 11.996094 3.921875 12.800781 4 13.53125 4.304688 C 14.261719 4.605469 14.886719 5.121094 15.324219 5.777344 C 15.765625 6.433594 16 7.207031 16 8 C 16 9.0625 15.578125 10.078125 14.828125 10.828125 C 14.078125 11.578125 13.0625 12 12 12 Z M 12 12 "/>
</g>
</svg>
