<?xml version="1.0" encoding="UTF-8"?>
<svg xmlns="http://www.w3.org/2000/svg" xmlns:xlink="http://www.w3.org/1999/xlink" width="40px" height="40px" viewBox="0 0 40 40" version="1.1">
<g id="surface1">
<path style=" stroke:none;fill-rule:nonzero;fill:rgb(100%,100%,100%);fill-opacity:0.74902;" d="M 17.25 13.949219 C 17.550781 14.128906 17.894531 14.222656 18.242188 14.222656 C 18.59375 14.222656 18.9375 14.128906 19.238281 13.949219 L 22.824219 11.699219 C 23.105469 11.523438 23.339844 11.28125 23.5 10.992188 C 23.660156 10.703125 23.746094 10.375 23.746094 10.042969 C 23.746094 9.710938 23.660156 9.386719 23.5 9.097656 C 23.339844 8.804688 23.105469 8.5625 22.824219 8.386719 L 19.226562 6.136719 C 18.933594 5.957031 18.597656 5.855469 18.253906 5.847656 C 17.910156 5.835938 17.570312 5.917969 17.269531 6.082031 C 16.96875 6.246094 16.714844 6.484375 16.535156 6.777344 C 16.355469 7.070312 16.257812 7.40625 16.25 7.75 L 16.25 12.25 C 16.25 12.597656 16.34375 12.9375 16.519531 13.234375 C 16.695312 13.535156 16.945312 13.78125 17.25 13.949219 Z M 18.75 8.75 L 20.761719 10 L 18.75 11.25 Z M 18.75 8.75 "/>
<path style=" stroke:none;fill-rule:nonzero;fill:rgb(100%,100%,100%);fill-opacity:0.74902;" d="M 32.5 8.75 L 27.5 8.75 L 27.5 5 C 27.5 4.335938 27.238281 3.699219 26.769531 3.230469 C 26.300781 2.761719 25.664062 2.5 25 2.5 L 15 2.5 C 14.335938 2.5 13.699219 2.761719 13.230469 3.230469 C 12.761719 3.699219 12.5 4.335938 12.5 5 L 12.5 8.75 L 7.5 8.75 C 6.835938 8.75 6.199219 9.011719 5.730469 9.480469 C 5.261719 9.949219 5 10.585938 5 11.25 L 5 35 C 5 35.664062 5.261719 36.300781 5.730469 36.769531 C 6.199219 37.238281 6.835938 37.5 7.5 37.5 L 32.5 37.5 C 33.164062 37.5 33.800781 37.238281 34.269531 36.769531 C 34.738281 36.300781 35 35.664062 35 35 L 35 11.25 C 35 10.585938 34.738281 9.949219 34.269531 9.480469 C 33.800781 9.011719 33.164062 8.75 32.5 8.75 Z M 32.5 11.25 L 32.5 15 L 27.5 15 L 27.5 11.25 Z M 15 5 L 25 5 L 25 15 L 15 15 Z M 7.5 11.25 L 12.5 11.25 L 12.5 15 L 7.5 15 Z M 15 35 L 15 26.25 C 15 25.585938 15.261719 24.949219 15.730469 24.480469 C 16.199219 24.011719 16.835938 23.75 17.5 23.75 L 18.75 23.75 L 18.75 35 Z M 21.25 35 L 21.25 23.75 L 22.5 23.75 C 23.164062 23.75 23.800781 24.011719 24.269531 24.480469 C 24.738281 24.949219 25 25.585938 25 26.25 L 25 35 Z M 27.5 35 L 27.5 26.25 C 27.5 24.925781 26.972656 23.652344 26.035156 22.714844 C 25.097656 21.777344 23.824219 21.25 22.5 21.25 L 17.5 21.25 C 16.175781 21.25 14.902344 21.777344 13.964844 22.714844 C 13.027344 23.652344 12.5 24.925781 12.5 26.25 L 12.5 35 L 7.5 35 L 7.5 17.5 L 32.5 17.5 L 32.5 35 Z M 27.5 35 "/>
</g>
</svg>
