<?xml version="1.0" encoding="UTF-8"?>
<svg xmlns="http://www.w3.org/2000/svg" xmlns:xlink="http://www.w3.org/1999/xlink" width="24px" height="24px" viewBox="0 0 24 24" version="1.1">
<g id="surface1">
<path style=" stroke:none;fill-rule:nonzero;fill:rgb(100%,100%,100%);fill-opacity:0.74902;" d="M 8.699219 14.199219 C 8 14.699219 7.101562 15 6.199219 15 L 4 15 C 3.398438 15 3 15.398438 3 16 C 3 16.601562 3.398438 17 4 17 L 6.199219 17 C 7.5 17 8.800781 16.601562 9.898438 15.800781 C 10.300781 15.5 10.398438 14.800781 10.101562 14.398438 C 9.699219 13.898438 9.101562 13.800781 8.699219 14.199219 Z M 13 10.699219 C 13.300781 10.699219 13.601562 10.601562 13.800781 10.398438 C 14.5 9.5 15.601562 9 16.800781 9 L 17.601562 9 L 17.300781 9.300781 C 16.898438 9.699219 16.898438 10.300781 17.300781 10.699219 C 17.5 10.898438 17.800781 11 18 11 C 18.199219 11 18.5 10.898438 18.699219 10.699219 L 20.699219 8.699219 C 20.800781 8.601562 20.898438 8.5 20.898438 8.398438 C 21 8.199219 21 7.898438 20.898438 7.601562 C 20.800781 7.5 20.800781 7.398438 20.699219 7.300781 L 18.699219 5.300781 C 18.300781 4.898438 17.699219 4.898438 17.300781 5.300781 C 16.898438 5.699219 16.898438 6.300781 17.300781 6.699219 L 17.601562 7 L 16.800781 7 C 15 7 13.398438 7.800781 12.199219 9.101562 C 11.800781 9.5 11.898438 10.101562 12.300781 10.5 C 12.5 10.699219 12.800781 10.699219 13 10.699219 Z M 13 10.699219 "/>
<path style=" stroke:none;fill-rule:nonzero;fill:rgb(100%,100%,100%);fill-opacity:0.74902;" d="M 20.699219 15.300781 L 18.699219 13.300781 C 18.300781 12.898438 17.699219 12.898438 17.300781 13.300781 C 16.898438 13.699219 16.898438 14.300781 17.300781 14.699219 L 17.601562 15 L 16.101562 15 C 14.5 15 13.199219 14.101562 12.5 12.699219 L 11.300781 10.300781 C 10.300781 8.300781 8.199219 7 5.898438 7 L 4 7 C 3.398438 7 3 7.398438 3 8 C 3 8.601562 3.398438 9 4 9 L 5.898438 9 C 7.5 9 8.800781 9.898438 9.5 11.300781 L 10.699219 13.699219 C 11.699219 15.800781 13.800781 17.101562 16.101562 17.101562 L 17.601562 17.101562 L 17.300781 17.398438 C 16.898438 17.800781 16.898438 18.398438 17.300781 18.800781 C 17.5 19 17.800781 19.101562 18 19.101562 C 18.199219 19.101562 18.5 19 18.699219 18.800781 L 20.699219 16.800781 C 21.101562 16.300781 21.101562 15.699219 20.699219 15.300781 Z M 20.699219 15.300781 "/>
</g>
</svg>
