<?xml version="1.0" encoding="UTF-8"?>
<svg xmlns="http://www.w3.org/2000/svg" xmlns:xlink="http://www.w3.org/1999/xlink" width="24px" height="24px" viewBox="0 0 24 24" version="1.1">
<g id="surface1">
<path style=" stroke:none;fill-rule:nonzero;fill:rgb(100%,100%,100%);fill-opacity:0.74902;" d="M 9 10 C 8.734375 10 8.480469 10.105469 8.292969 10.292969 C 8.105469 10.480469 8 10.734375 8 11 L 8 13 C 8 13.265625 8.105469 13.519531 8.292969 13.707031 C 8.480469 13.894531 8.734375 14 9 14 C 9.265625 14 9.519531 13.894531 9.707031 13.707031 C 9.894531 13.519531 10 13.265625 10 13 L 10 11 C 10 10.734375 9.894531 10.480469 9.707031 10.292969 C 9.519531 10.105469 9.265625 10 9 10 Z M 21 11 C 21.265625 11 21.519531 10.894531 21.707031 10.707031 C 21.894531 10.519531 22 10.265625 22 10 L 22 6 C 22 5.734375 21.894531 5.480469 21.707031 5.292969 C 21.519531 5.105469 21.265625 5 21 5 L 3 5 C 2.734375 5 2.480469 5.105469 2.292969 5.292969 C 2.105469 5.480469 2 5.734375 2 6 L 2 10 C 2 10.265625 2.105469 10.519531 2.292969 10.707031 C 2.480469 10.894531 2.734375 11 3 11 C 3.265625 11 3.519531 11.105469 3.707031 11.292969 C 3.894531 11.480469 4 11.734375 4 12 C 4 12.265625 3.894531 12.519531 3.707031 12.707031 C 3.519531 12.894531 3.265625 13 3 13 C 2.734375 13 2.480469 13.105469 2.292969 13.292969 C 2.105469 13.480469 2 13.734375 2 14 L 2 18 C 2 18.265625 2.105469 18.519531 2.292969 18.707031 C 2.480469 18.894531 2.734375 19 3 19 L 21 19 C 21.265625 19 21.519531 18.894531 21.707031 18.707031 C 21.894531 18.519531 22 18.265625 22 18 L 22 14 C 22 13.734375 21.894531 13.480469 21.707031 13.292969 C 21.519531 13.105469 21.265625 13 21 13 C 20.734375 13 20.480469 12.894531 20.292969 12.707031 C 20.105469 12.519531 20 12.265625 20 12 C 20 11.734375 20.105469 11.480469 20.292969 11.292969 C 20.480469 11.105469 20.734375 11 21 11 Z M 20 9.179688 C 19.421875 9.390625 18.921875 9.773438 18.566406 10.277344 C 18.214844 10.78125 18.023438 11.382812 18.023438 12 C 18.023438 12.617188 18.214844 13.21875 18.566406 13.722656 C 18.921875 14.226562 19.421875 14.609375 20 14.820312 L 20 17 L 10 17 C 10 16.734375 9.894531 16.480469 9.707031 16.292969 C 9.519531 16.105469 9.265625 16 9 16 C 8.734375 16 8.480469 16.105469 8.292969 16.292969 C 8.105469 16.480469 8 16.734375 8 17 L 4 17 L 4 14.820312 C 4.578125 14.609375 5.078125 14.226562 5.433594 13.722656 C 5.785156 13.21875 5.976562 12.617188 5.976562 12 C 5.976562 11.382812 5.785156 10.78125 5.433594 10.277344 C 5.078125 9.773438 4.578125 9.390625 4 9.179688 L 4 7 L 8 7 C 8 7.265625 8.105469 7.519531 8.292969 7.707031 C 8.480469 7.894531 8.734375 8 9 8 C 9.265625 8 9.519531 7.894531 9.707031 7.707031 C 9.894531 7.519531 10 7.265625 10 7 L 20 7 Z M 20 9.179688 "/>
</g>
</svg>
