<?xml version="1.0" encoding="UTF-8"?>
<svg xmlns="http://www.w3.org/2000/svg" xmlns:xlink="http://www.w3.org/1999/xlink" width="40px" height="40px" viewBox="0 0 40 40" version="1.1">
<g id="surface1">
<path style=" stroke:none;fill-rule:nonzero;fill:rgb(100%,100%,100%);fill-opacity:0.74902;" d="M 9.765625 22.113281 C 11.035156 21.882812 12.074219 20.972656 12.476562 19.746094 C 12.535156 19.5625 12.582031 19.378906 12.609375 19.191406 C 12.8125 17.894531 12.273438 16.582031 11.179688 15.804688 C 11.179688 15.804688 11.175781 15.804688 11.175781 15.804688 C 11.171875 15.800781 11.167969 15.800781 11.167969 15.800781 C 10.878906 15.59375 10.5625 15.433594 10.230469 15.328125 C 9.875 15.210938 9.511719 15.15625 9.144531 15.15625 C 7.621094 15.15625 6.28125 16.128906 5.808594 17.578125 C 5.210938 19.414062 6.222656 21.394531 8.058594 21.992188 C 8.410156 22.109375 8.777344 22.167969 9.148438 22.167969 C 9.351562 22.167969 9.558594 22.148438 9.765625 22.113281 Z M 11.355469 19.703125 C 11.34375 19.730469 11.328125 19.757812 11.3125 19.785156 C 11.28125 19.847656 11.246094 19.910156 11.207031 19.96875 C 11.1875 20 11.167969 20.027344 11.148438 20.058594 C 11.109375 20.113281 11.066406 20.167969 11.023438 20.222656 C 11.003906 20.246094 10.984375 20.273438 10.960938 20.296875 C 10.898438 20.367188 10.828125 20.4375 10.753906 20.503906 C 10.746094 20.511719 10.734375 20.519531 10.722656 20.527344 C 10.660156 20.582031 10.589844 20.636719 10.519531 20.683594 C 10.492188 20.703125 10.460938 20.722656 10.429688 20.742188 C 10.375 20.773438 10.320312 20.804688 10.261719 20.835938 C 10.226562 20.855469 10.191406 20.871094 10.15625 20.886719 C 10.136719 20.894531 10.113281 20.902344 10.09375 20.914062 C 10.066406 20.683594 10.054688 20.457031 10.054688 20.222656 C 10.054688 19.082031 10.367188 17.988281 10.964844 17.03125 C 11 17.070312 11.035156 17.109375 11.066406 17.152344 C 11.089844 17.179688 11.117188 17.210938 11.140625 17.242188 C 11.199219 17.332031 11.257812 17.421875 11.308594 17.515625 C 11.3125 17.523438 11.320312 17.535156 11.324219 17.542969 C 11.378906 17.648438 11.421875 17.757812 11.460938 17.871094 C 11.472656 17.902344 11.480469 17.9375 11.488281 17.96875 C 11.511719 18.050781 11.535156 18.128906 11.550781 18.210938 C 11.554688 18.253906 11.5625 18.296875 11.566406 18.335938 C 11.578125 18.414062 11.582031 18.492188 11.585938 18.570312 C 11.589844 18.613281 11.589844 18.65625 11.589844 18.699219 C 11.585938 18.78125 11.578125 18.863281 11.570312 18.945312 C 11.566406 18.984375 11.5625 19.023438 11.558594 19.0625 C 11.535156 19.179688 11.507812 19.300781 11.472656 19.417969 C 11.4375 19.515625 11.398438 19.609375 11.355469 19.703125 Z M 6.816406 17.90625 C 7.144531 16.890625 8.082031 16.210938 9.144531 16.210938 C 9.402344 16.210938 9.65625 16.253906 9.902344 16.332031 C 9.972656 16.355469 10.035156 16.386719 10.101562 16.414062 C 9.378906 17.550781 8.996094 18.855469 8.996094 20.222656 C 8.996094 20.519531 9.019531 20.8125 9.058594 21.101562 C 8.828125 21.09375 8.605469 21.058594 8.386719 20.988281 C 7.105469 20.570312 6.398438 19.1875 6.816406 17.90625 Z M 21.652344 23.566406 C 20.5625 23.15625 19.3125 23.324219 18.367188 24.011719 C 18.261719 24.085938 18.160156 24.167969 18.066406 24.257812 C 17.484375 24.78125 17.101562 25.488281 16.972656 26.265625 C 16.949219 26.390625 16.933594 26.515625 16.925781 26.644531 C 16.878906 27.449219 17.117188 28.253906 17.589844 28.90625 C 18.25 29.8125 19.308594 30.351562 20.429688 30.351562 C 21.171875 30.351562 21.882812 30.121094 22.488281 29.683594 C 23.242188 29.132812 23.742188 28.324219 23.886719 27.402344 C 24.035156 26.472656 23.8125 25.546875 23.261719 24.789062 C 22.855469 24.230469 22.300781 23.808594 21.652344 23.566406 Z M 20.421875 24.402344 C 20.445312 24.402344 20.472656 24.40625 20.496094 24.40625 C 19.84375 25.09375 19.046875 25.613281 18.15625 25.929688 C 18.160156 25.929688 18.160156 25.925781 18.160156 25.925781 C 18.199219 25.828125 18.246094 25.734375 18.296875 25.644531 C 18.308594 25.621094 18.324219 25.597656 18.339844 25.574219 C 18.378906 25.507812 18.421875 25.445312 18.46875 25.382812 C 18.488281 25.355469 18.511719 25.328125 18.53125 25.300781 C 18.578125 25.246094 18.628906 25.191406 18.679688 25.136719 C 18.703125 25.113281 18.722656 25.089844 18.746094 25.070312 C 18.824219 24.996094 18.902344 24.929688 18.988281 24.867188 C 19.410156 24.5625 19.902344 24.402344 20.421875 24.402344 Z M 22.84375 27.234375 C 22.742188 27.878906 22.394531 28.445312 21.867188 28.824219 C 21.445312 29.132812 20.949219 29.292969 20.429688 29.292969 C 19.644531 29.292969 18.90625 28.917969 18.445312 28.285156 C 18.1875 27.929688 18.035156 27.515625 17.992188 27.082031 C 19.421875 26.695312 20.6875 25.871094 21.625 24.714844 C 21.929688 24.886719 22.195312 25.121094 22.40625 25.410156 C 22.789062 25.941406 22.945312 26.589844 22.84375 27.234375 Z M 13.871094 24.019531 C 13.28125 23.589844 12.570312 23.363281 11.851562 23.351562 C 11.546875 23.347656 11.246094 23.386719 10.949219 23.460938 C 10.824219 23.492188 10.699219 23.527344 10.578125 23.574219 C 9.941406 23.8125 9.386719 24.234375 8.976562 24.792969 C 8.429688 25.550781 8.203125 26.476562 8.351562 27.398438 C 8.496094 28.324219 8.992188 29.136719 9.75 29.6875 C 10.351562 30.125 11.066406 30.359375 11.808594 30.359375 C 12.929688 30.359375 13.992188 29.816406 14.648438 28.910156 C 15.125 28.257812 15.359375 27.453125 15.3125 26.644531 C 15.246094 25.589844 14.722656 24.632812 13.871094 24.019531 Z M 11.777344 24.410156 C 11.84375 24.410156 11.914062 24.414062 11.984375 24.421875 C 12.046875 24.425781 12.109375 24.425781 12.167969 24.433594 C 12.242188 24.445312 12.316406 24.464844 12.386719 24.484375 C 12.441406 24.496094 12.496094 24.503906 12.546875 24.519531 C 12.632812 24.546875 12.714844 24.585938 12.796875 24.621094 C 12.835938 24.636719 12.875 24.648438 12.910156 24.667969 C 13.027344 24.726562 13.144531 24.796875 13.25 24.875 C 13.335938 24.9375 13.417969 25.003906 13.492188 25.078125 C 13.515625 25.097656 13.535156 25.121094 13.558594 25.144531 C 13.609375 25.195312 13.660156 25.25 13.707031 25.308594 C 13.730469 25.335938 13.75 25.363281 13.769531 25.390625 C 13.816406 25.449219 13.859375 25.515625 13.898438 25.578125 C 13.914062 25.601562 13.929688 25.625 13.941406 25.648438 C 13.992188 25.738281 14.039062 25.832031 14.078125 25.929688 C 14.078125 25.929688 14.078125 25.933594 14.082031 25.933594 C 13.191406 25.617188 12.390625 25.097656 11.738281 24.414062 C 11.75 24.414062 11.761719 24.410156 11.777344 24.410156 Z M 11.808594 29.300781 C 11.289062 29.300781 10.792969 29.136719 10.371094 28.832031 C 9.84375 28.449219 9.496094 27.878906 9.394531 27.234375 C 9.292969 26.589844 9.449219 25.945312 9.832031 25.417969 C 10.042969 25.128906 10.308594 24.894531 10.609375 24.726562 C 11.550781 25.875 12.816406 26.699219 14.246094 27.085938 C 14.203125 27.519531 14.050781 27.933594 13.792969 28.289062 C 13.332031 28.921875 12.589844 29.300781 11.808594 29.300781 Z M 16.109375 17.097656 C 16.3125 17.097656 16.511719 17.082031 16.707031 17.046875 C 18.066406 16.816406 19.179688 15.800781 19.515625 14.425781 C 19.515625 14.421875 19.515625 14.421875 19.515625 14.421875 C 19.582031 14.15625 19.617188 13.878906 19.617188 13.59375 C 19.617188 11.660156 18.042969 10.089844 16.109375 10.089844 C 14.175781 10.089844 12.605469 11.660156 12.605469 13.59375 C 12.605469 13.882812 12.636719 14.164062 12.703125 14.425781 C 13.089844 16 14.488281 17.097656 16.109375 17.097656 Z M 15.71875 16.007812 C 15.675781 16 15.636719 15.988281 15.597656 15.980469 C 15.511719 15.960938 15.425781 15.941406 15.34375 15.914062 C 15.296875 15.902344 15.253906 15.882812 15.210938 15.863281 C 15.136719 15.835938 15.0625 15.804688 14.992188 15.769531 C 14.949219 15.746094 14.90625 15.722656 14.863281 15.695312 C 14.796875 15.65625 14.730469 15.613281 14.667969 15.566406 C 14.628906 15.539062 14.589844 15.511719 14.554688 15.480469 C 14.488281 15.425781 14.429688 15.371094 14.371094 15.3125 C 14.34375 15.28125 14.3125 15.253906 14.28125 15.21875 C 14.214844 15.144531 14.15625 15.066406 14.101562 14.984375 C 14.085938 14.960938 14.066406 14.941406 14.050781 14.917969 C 13.984375 14.816406 13.925781 14.703125 13.875 14.589844 C 15.289062 14.019531 16.929688 14.019531 18.347656 14.585938 C 18.296875 14.699219 18.238281 14.8125 18.171875 14.914062 C 18.152344 14.945312 18.128906 14.972656 18.109375 15.003906 C 18.054688 15.078125 18 15.148438 17.941406 15.214844 C 17.910156 15.25 17.875 15.285156 17.84375 15.316406 C 17.789062 15.371094 17.730469 15.425781 17.667969 15.476562 C 17.632812 15.507812 17.589844 15.539062 17.550781 15.570312 C 17.488281 15.613281 17.425781 15.65625 17.359375 15.695312 C 17.316406 15.71875 17.273438 15.746094 17.226562 15.769531 C 17.15625 15.804688 17.085938 15.835938 17.011719 15.863281 C 16.96875 15.882812 16.921875 15.902344 16.875 15.914062 C 16.792969 15.941406 16.710938 15.960938 16.625 15.980469 C 16.585938 15.988281 16.542969 16 16.503906 16.007812 C 16.375 16.027344 16.242188 16.042969 16.109375 16.042969 C 15.976562 16.042969 15.847656 16.027344 15.71875 16.007812 Z M 16.109375 11.144531 C 17.441406 11.144531 18.523438 12.210938 18.554688 13.535156 C 17.777344 13.25 16.960938 13.101562 16.113281 13.101562 C 15.265625 13.101562 14.445312 13.25 13.664062 13.539062 C 13.695312 12.214844 14.78125 11.144531 16.109375 11.144531 Z M 19.753906 19.734375 C 19.851562 20.042969 19.992188 20.332031 20.167969 20.59375 C 20.6875 21.378906 21.511719 21.933594 22.46875 22.101562 C 22.671875 22.140625 22.878906 22.160156 23.085938 22.160156 C 23.449219 22.160156 23.8125 22.101562 24.167969 21.988281 C 26.003906 21.390625 27.015625 19.40625 26.417969 17.566406 C 25.949219 16.121094 24.609375 15.148438 23.085938 15.148438 C 22.71875 15.148438 22.351562 15.207031 22 15.320312 C 21.660156 15.429688 21.339844 15.589844 21.050781 15.800781 C 19.796875 16.6875 19.273438 18.269531 19.753906 19.734375 Z M 20.660156 18.328125 C 20.667969 18.285156 20.671875 18.246094 20.679688 18.203125 C 20.695312 18.121094 20.714844 18.039062 20.738281 17.957031 C 20.75 17.925781 20.753906 17.894531 20.765625 17.863281 C 20.804688 17.75 20.847656 17.640625 20.902344 17.535156 C 20.90625 17.53125 20.910156 17.527344 20.910156 17.523438 C 20.964844 17.421875 21.023438 17.328125 21.089844 17.234375 C 21.109375 17.207031 21.132812 17.179688 21.152344 17.152344 C 21.1875 17.109375 21.226562 17.070312 21.261719 17.027344 C 21.859375 17.984375 22.171875 19.078125 22.171875 20.222656 C 22.171875 20.449219 22.160156 20.675781 22.136719 20.902344 C 22.113281 20.894531 22.089844 20.886719 22.066406 20.875 C 22.035156 20.859375 22.007812 20.847656 21.976562 20.832031 C 21.914062 20.800781 21.851562 20.765625 21.792969 20.726562 C 21.765625 20.710938 21.738281 20.695312 21.714844 20.679688 C 21.632812 20.625 21.558594 20.566406 21.484375 20.503906 C 21.484375 20.503906 21.480469 20.5 21.476562 20.496094 C 21.402344 20.429688 21.332031 20.359375 21.265625 20.285156 C 21.246094 20.265625 21.226562 20.242188 21.207031 20.21875 C 21.164062 20.164062 21.117188 20.105469 21.078125 20.046875 C 21.058594 20.019531 21.039062 19.992188 21.023438 19.960938 C 20.984375 19.902344 20.949219 19.839844 20.914062 19.777344 C 20.902344 19.75 20.886719 19.722656 20.871094 19.695312 C 20.828125 19.601562 20.789062 19.507812 20.757812 19.410156 C 20.71875 19.289062 20.691406 19.171875 20.671875 19.050781 C 20.664062 19.011719 20.664062 18.972656 20.65625 18.9375 C 20.648438 18.855469 20.640625 18.773438 20.640625 18.691406 C 20.636719 18.648438 20.640625 18.605469 20.640625 18.5625 C 20.644531 18.480469 20.652344 18.40625 20.660156 18.328125 Z M 23.085938 16.203125 C 24.148438 16.203125 25.085938 16.882812 25.414062 17.894531 C 25.828125 19.179688 25.125 20.5625 23.84375 20.980469 C 23.621094 21.050781 23.398438 21.085938 23.171875 21.09375 C 23.207031 20.804688 23.230469 20.515625 23.230469 20.222656 C 23.230469 18.851562 22.851562 17.546875 22.125 16.410156 C 22.191406 16.378906 22.257812 16.347656 22.328125 16.324219 C 22.574219 16.246094 22.828125 16.203125 23.085938 16.203125 Z M 18.425781 20.222656 C 18.425781 18.949219 17.386719 17.910156 16.113281 17.910156 C 14.839844 17.910156 13.804688 18.949219 13.804688 20.222656 C 13.804688 21.496094 14.839844 22.535156 16.113281 22.535156 C 17.386719 22.535156 18.425781 21.496094 18.425781 20.222656 Z M 16.113281 21.476562 C 15.421875 21.476562 14.859375 20.914062 14.859375 20.222656 C 14.859375 19.53125 15.421875 18.96875 16.113281 18.96875 C 16.804688 18.96875 17.367188 19.53125 17.367188 20.222656 C 17.367188 20.914062 16.804688 21.476562 16.113281 21.476562 Z M 16.113281 21.476562 "/>
<path style=" stroke:none;fill-rule:nonzero;fill:rgb(100%,100%,100%);fill-opacity:0.74902;" d="M 38.015625 34.589844 L 22.480469 34.589844 C 27.910156 32.28125 31.726562 26.894531 31.726562 20.632812 C 31.726562 12.277344 24.929688 5.476562 16.570312 5.476562 C 8.214844 5.476562 1.414062 12.277344 1.414062 20.632812 C 1.414062 28.992188 8.214844 35.789062 16.570312 35.789062 L 38.015625 35.789062 C 38.347656 35.789062 38.617188 35.523438 38.617188 35.191406 C 38.617188 34.859375 38.347656 34.589844 38.015625 34.589844 Z M 2.617188 20.632812 C 2.617188 12.9375 8.875 6.679688 16.570312 6.679688 C 24.269531 6.679688 30.527344 12.9375 30.527344 20.632812 C 30.527344 28.328125 24.269531 34.589844 16.570312 34.589844 C 8.875 34.589844 2.617188 28.328125 2.617188 20.632812 Z M 2.617188 20.632812 "/>
<path style="fill:none;stroke-width:1;stroke-linecap:butt;stroke-linejoin:miter;stroke:rgb(100%,100%,100%);stroke-opacity:0.74902;stroke-miterlimit:4;" d="M 39.916406 35.818945 L 25.704492 35.818945 C 30.552539 32.964258 33.813281 27.689648 33.813281 21.664453 C 33.813281 12.616406 26.450977 5.25 17.398828 5.25 C 8.350781 5.25 0.984375 12.616406 0.984375 21.664453 C 0.984375 30.716602 8.350781 38.078906 17.398828 38.078906 L 39.916406 38.078906 C 40.539844 38.078906 41.048437 37.574414 41.048437 36.950977 C 41.048437 36.327539 40.539844 35.818945 39.916406 35.818945 Z M 3.244336 21.664453 C 3.244336 13.863281 9.597656 7.509961 17.398828 7.509961 C 25.204102 7.509961 31.55332 13.863281 31.55332 21.664453 C 31.55332 29.469727 25.204102 35.818945 17.398828 35.818945 C 9.597656 35.818945 3.244336 29.469727 3.244336 21.664453 Z M 3.244336 21.664453 " transform="matrix(0.952381,0,0,0.952381,0,0)"/>
</g>
</svg>
