<?xml version="1.0" encoding="UTF-8"?>
<svg xmlns="http://www.w3.org/2000/svg" xmlns:xlink="http://www.w3.org/1999/xlink" width="40px" height="40px" viewBox="0 0 40 38" version="1.1">
<g id="surface1">
<path style=" stroke:none;fill-rule:nonzero;fill:rgb(100%,100%,100%);fill-opacity:0.74902;" d="M 34.066406 14.117188 L 31.398438 14.117188 C 30.664062 14.117188 30.066406 14.703125 30.066406 15.421875 C 30.066406 16.144531 30.664062 16.726562 31.398438 16.726562 L 34.066406 16.726562 C 34.800781 16.726562 35.398438 16.144531 35.398438 15.421875 C 35.398438 14.703125 34.800781 14.117188 34.066406 14.117188 Z M 34.066406 14.117188 "/>
<path style=" stroke:none;fill-rule:nonzero;fill:rgb(100%,100%,100%);fill-opacity:0.74902;" d="M 34.066406 20.644531 L 31.398438 20.644531 C 30.664062 20.644531 30.066406 21.226562 30.066406 21.949219 C 30.066406 22.667969 30.664062 23.253906 31.398438 23.253906 L 34.066406 23.253906 C 34.800781 23.253906 35.398438 22.667969 35.398438 21.949219 C 35.398438 21.226562 34.800781 20.644531 34.066406 20.644531 Z M 34.066406 20.644531 "/>
<path style=" stroke:none;fill-rule:nonzero;fill:rgb(100%,100%,100%);fill-opacity:0.74902;" d="M 32 32.949219 C 32 32.230469 31.402344 31.644531 30.667969 31.644531 C 29.929688 31.644531 29.332031 32.230469 29.332031 32.949219 L 29.332031 35.558594 C 29.332031 36.28125 29.929688 36.863281 30.667969 36.863281 C 31.402344 36.863281 32 36.28125 32 35.558594 Z M 32 32.949219 "/>
<path style=" stroke:none;fill-rule:nonzero;fill:rgb(100%,100%,100%);fill-opacity:0.74902;" d="M 10.667969 32.949219 C 10.667969 32.230469 10.070312 31.644531 9.332031 31.644531 C 8.597656 31.644531 8 32.230469 8 32.949219 L 8 35.558594 C 8 36.28125 8.597656 36.863281 9.332031 36.863281 C 10.070312 36.863281 10.667969 36.28125 10.667969 35.558594 Z M 10.667969 32.949219 "/>
<path style=" stroke:none;fill-rule:nonzero;fill:rgb(100%,100%,100%);fill-opacity:0.74902;" d="M 36 33.039062 L 4 33.039062 C 2.9375 33.039062 1.921875 32.628906 1.171875 31.894531 C 0.421875 31.160156 0 30.164062 0 29.125 L 0 8.285156 C 0 7.246094 0.421875 6.25 1.171875 5.515625 C 1.921875 4.78125 2.9375 4.371094 4 4.371094 L 36 4.371094 C 37.0625 4.371094 38.078125 4.78125 38.828125 5.515625 C 39.578125 6.25 40 7.246094 40 8.285156 L 40 29.085938 C 40.003906 29.605469 39.90625 30.117188 39.707031 30.597656 C 39.507812 31.078125 39.214844 31.511719 38.84375 31.878906 C 38.46875 32.25 38.027344 32.539062 37.539062 32.738281 C 37.050781 32.9375 36.527344 33.042969 36 33.039062 Z M 4 6.941406 C 3.644531 6.941406 3.308594 7.078125 3.058594 7.324219 C 2.808594 7.566406 2.667969 7.898438 2.667969 8.246094 L 2.667969 29.085938 C 2.667969 29.433594 2.808594 29.765625 3.058594 30.007812 C 3.308594 30.253906 3.644531 30.390625 4 30.390625 L 36 30.390625 C 36.351562 30.390625 36.691406 30.253906 36.941406 30.007812 C 37.191406 29.765625 37.332031 29.433594 37.332031 29.085938 L 37.332031 8.285156 C 37.332031 7.9375 37.191406 7.605469 36.941406 7.363281 C 36.691406 7.117188 36.351562 6.980469 36 6.980469 Z M 4 6.941406 "/>
<path style=" stroke:none;fill-rule:nonzero;fill:rgb(100%,100%,100%);fill-opacity:0.74902;" d="M 26.121094 28.472656 L 7.707031 28.472656 C 6.96875 28.46875 6.261719 28.179688 5.738281 27.671875 C 5.21875 27.160156 4.921875 26.46875 4.921875 25.746094 L 4.921875 12.070312 C 4.921875 11.226562 5.269531 10.421875 5.878906 9.824219 C 6.488281 9.230469 7.3125 8.898438 8.171875 8.898438 L 26.121094 8.898438 C 26.859375 8.902344 27.566406 9.191406 28.085938 9.699219 C 28.609375 10.210938 28.902344 10.902344 28.90625 11.625 L 28.90625 25.734375 C 28.90625 26.457031 28.613281 27.152344 28.089844 27.667969 C 27.570312 28.179688 26.859375 28.46875 26.121094 28.472656 Z M 8.160156 11.507812 C 8.003906 11.507812 7.855469 11.566406 7.746094 11.675781 C 7.636719 11.785156 7.574219 11.929688 7.574219 12.082031 L 7.574219 25.734375 C 7.574219 25.765625 7.585938 25.792969 7.609375 25.816406 C 7.632812 25.839844 7.660156 25.851562 7.691406 25.851562 L 26.121094 25.851562 C 26.152344 25.851562 26.183594 25.839844 26.203125 25.816406 C 26.226562 25.792969 26.238281 25.765625 26.238281 25.734375 L 26.238281 11.625 C 26.238281 11.59375 26.226562 11.5625 26.203125 11.542969 C 26.183594 11.519531 26.152344 11.507812 26.121094 11.507812 Z M 29.507812 1.316406 C 29.507812 1.546875 29.445312 1.773438 29.328125 1.972656 C 29.210938 2.171875 29.042969 2.335938 28.839844 2.449219 L 24.847656 4.371094 L 15.152344 4.371094 L 11.160156 2.449219 C 11.007812 2.367188 10.875 2.25 10.765625 2.117188 C 10.65625 1.980469 10.578125 1.824219 10.53125 1.65625 C 10.488281 1.492188 10.476562 1.316406 10.5 1.148438 C 10.519531 0.976562 10.578125 0.8125 10.667969 0.664062 C 10.78125 0.464844 10.949219 0.300781 11.152344 0.1875 C 11.351562 0.0742188 11.582031 0.0117188 11.8125 0.0117188 C 12.046875 0.0078125 12.277344 0.0664062 12.480469 0.179688 L 20 4.371094 L 27.519531 0.167969 C 27.828125 -0.00390625 28.191406 -0.0429688 28.53125 0.046875 C 28.871094 0.140625 29.160156 0.363281 29.332031 0.664062 C 29.449219 0.863281 29.507812 1.085938 29.507812 1.316406 Z M 29.507812 1.316406 "/>
</g>
</svg>
