<?xml version="1.0" encoding="UTF-8"?>
<svg xmlns="http://www.w3.org/2000/svg" xmlns:xlink="http://www.w3.org/1999/xlink" width="40px" height="40px" viewBox="0 0 40 40" version="1.1">
<g id="surface1">
<path style=" stroke:none;fill-rule:nonzero;fill:rgb(100%,100%,100%);fill-opacity:0.74902;" d="M 1.933594 17.875 L 15.941406 17.875 C 17.011719 17.875 17.875 17.011719 17.875 15.941406 L 17.875 1.933594 C 17.875 0.867188 17.011719 0 15.941406 0 L 1.933594 0 C 0.867188 0 0 0.867188 0 1.933594 L 0 15.941406 C 0 17.011719 0.867188 17.875 1.933594 17.875 Z M 3.871094 3.871094 L 14.003906 3.871094 L 14.003906 14.003906 L 3.871094 14.003906 Z M 38.066406 0 L 24.058594 0 C 22.988281 0 22.125 0.867188 22.125 1.933594 L 22.125 15.941406 C 22.125 17.011719 22.988281 17.875 24.058594 17.875 L 38.066406 17.875 C 39.132812 17.875 40 17.011719 40 15.941406 L 40 1.933594 C 40 0.867188 39.132812 0 38.066406 0 Z M 36.128906 14.003906 L 25.996094 14.003906 L 25.996094 3.871094 L 36.128906 3.871094 Z M 1.933594 40 L 15.941406 40 C 17.011719 40 17.875 39.132812 17.875 38.066406 L 17.875 24.058594 C 17.875 22.988281 17.011719 22.125 15.941406 22.125 L 1.933594 22.125 C 0.867188 22.125 0 22.988281 0 24.058594 L 0 38.066406 C 0 39.132812 0.867188 40 1.933594 40 Z M 3.871094 25.996094 L 14.003906 25.996094 L 14.003906 36.128906 L 3.871094 36.128906 Z M 38.066406 22.125 L 24.058594 22.125 C 22.988281 22.125 22.125 22.988281 22.125 24.058594 L 22.125 38.066406 C 22.125 39.132812 22.988281 40 24.058594 40 L 38.066406 40 C 39.132812 40 40 39.132812 40 38.066406 L 40 24.058594 C 40 22.988281 39.132812 22.125 38.066406 22.125 Z M 36.128906 36.128906 L 25.996094 36.128906 L 25.996094 25.996094 L 36.128906 25.996094 Z M 36.128906 36.128906 "/>
</g>
</svg>
